<svg xmlns="http://www.w3.org/2000/svg" width="48" height="48" viewBox="0 0 48 48">
  <defs>
    <linearGradient id="bg" x1="0" y1="0" x2="0" y2="1">
      <stop offset="0%" stop-color="#1a73e8"/>
      <stop offset="50%" stop-color="#fcd116"/>
      <stop offset="100%" stop-color="#00a64e"/>
    </linearGradient>
    <linearGradient id="sun" x1="0" y1="0" x2="1" y2="1">
      <stop offset="0%" stop-color="#ffd700"/>
      <stop offset="100%" stop-color="#ff8c00"/>
    </linearGradient>
  </defs>
  <circle cx="24" cy="24" r="23" fill="url(#bg)"/>
  <circle cx="24" cy="24" r="10" fill="url(#sun)"/>
  <g stroke="#ffd700" stroke-width="1.2" stroke-linecap="round">
    <line x1="24" y1="6" x2="24" y2="11"/>
    <line x1="24" y1="37" x2="24" y2="42"/>
    <line x1="6" y1="24" x2="11" y2="24"/>
    <line x1="37" y1="24" x2="42" y2="24"/>
    <line x1="10.3" y1="10.3" x2="13.8" y2="13.8"/>
    <line x1="34.2" y1="34.2" x2="37.7" y2="37.7"/>
    <line x1="10.3" y1="37.7" x2="13.8" y2="34.2"/>
    <line x1="34.2" y1="13.8" x2="37.7" y2="10.3"/>
    <line x1="12.5" y1="16.5" x2="16.5" y2="18.5"/>
    <line x1="31.5" y1="29.5" x2="35.5" y2="31.5"/>
    <line x1="12.5" y1="31.5" x2="16.5" y2="29.5"/>
    <line x1="31.5" y1="18.5" x2="35.5" y2="16.5"/>
    <line x1="16.5" y1="12.5" x2="18.5" y2="16.5"/>
    <line x1="29.5" y1="31.5" x2="31.5" y2="35.5"/>
    <line x1="16.5" y1="35.5" x2="18.5" y2="31.5"/>
    <line x1="29.5" y1="16.5" x2="31.5" y2="12.5"/>
  </g>
  <circle cx="24" cy="24" r="7" fill="url(#sun)" stroke="#e67300" stroke-width="0.5"/>
  <text x="24" y="27.5" text-anchor="middle" font-family="Arial,Helvetica,sans-serif" font-weight="bold" font-size="9" fill="#fff">IH</text>
</svg>
